name processed_emg_signals
nRows=30
nColumns=7
 
endheader
time	LGLTMED	LRF	LADDLONG	LBF	LTA	LGM
1.1251999999999993	0.545756481825119	0.641859942675671	0.858198132257495	0.47487117744093	0.936246986157019	0.5894794703036071
1.1351999999999993	0.5439482226946734	0.6389012686662413	0.8565637170315772	0.4739803925156919	0.9390162137756132	0.5899025098231596
1.145199999999999	0.5420760530171077	0.6358998033554475	0.854808832801096	0.4730318764764259	0.9416762719668372	0.5902932298198706
1.1551999999999991	0.5401445035480579	0.6328602505774229	0.8529354929367718	0.4720285191857106	0.9442276032111692	0.5906547587493816
1.1651999999999991	0.538158087691815	0.6297872382887147	0.8509457467540785	0.4709732076323652	0.946670651689442	0.5909901404851222
1.1751999999999991	0.5361212945757649	0.6266853153044872	0.8488416840946639	0.4698688204271954	0.949005867164138	0.5913023281191909
1.1851999999999991	0.5340385821800345	0.6235589482061258	0.8466254397823036	0.4687182223746486	0.9512337091071492	0.591594178030536
1.1951999999999992	0.5319143705358811	0.6204125184206993	0.8442991979164212	0.4675242591379406	0.9533546510527412	0.5918684442377494
1.2051999999999992	0.5297530350066492	0.6172503194719278	0.8418651959726249	0.4662897520151436	0.9553691851513754	0.5921277730530676
1.2151999999999992	0.5275588996655621	0.6140765544014317	0.8393257286864464	0.465017492843632	0.9572778268975632	0.5923746980539464
1.2251999999999992	0.5253362307845021	0.6108953333580165	0.8366831517028148	0.4637102390497734	0.9590811200023462	0.5926116353878884
1.2351999999999992	0.5230892304476615	0.6077106713523004	0.8339398849788779	0.4623707088601812	0.9607796413786948	0.5928408794251617
1.2451999999999992	0.5208220303041761	0.6045264861744077	0.8310984159312145	0.461001576690073	0.9623740062052564	0.5930645987723759
1.2551999999999992	0.5185386854742398	0.601346596473377	0.8281613023202802	0.459605468723225	0.9638648730312268	0.5932848326583803
1.2651999999999992	0.5162431686235035	0.5981747199979984	0.8251311748657669	0.4581849586971852	0.9652529488822812	0.5935034877027754
1.2751999999999992	0.5139393642208253	0.5950144719994347	0.8220107395872684	0.4567425639066108	0.9665389943250556	0.5937223350766754
1.285199999999999	0.5116310629944396	0.5918693637961049	0.8188027798655447	0.4552807414368271	0.9677238284455584	0.5939430080646871
1.295199999999999	0.509321956601888	0.5887428015010221	0.8155101582208647	0.4538018846391216	0.9688083336950324	0.5941670000364738
1.305199999999999	0.5070156325289352	0.5856380849119414	0.8121358178059139	0.4523083198584247	0.9697934605549492	0.5943956628348233
1.315199999999999	0.5047155692325374	0.5825584065644935	0.8086827836116722	0.450802303423498	0.9706802319709424	0.5946302055859634
1.325199999999999	0.5024251315419773	0.5795068509485406	0.8051541633846208	0.4492860189088981	0.971469747503644	0.5948716939361653
1.335199999999999	0.5001475663314043	0.5764863938870342	0.8015531482529589	0.4477615746772244	0.9721631871432403	0.5951210497175272
1.345199999999999	0.4978859984754805	0.5734999020760546	0.7978830130586861	0.4462310017089486	0.972761814735418	0.5953790510439508
1.355199999999999	0.4956434270982656	0.5705501327837572	0.7941471163916749	0.4446962517259744	0.9732669809702515	0.595646332836872
1.365199999999999	0.4934227221239465	0.567639733704995	0.7903489003219291	0.4431591956135791	0.9736801258924894	0.5959233877781364
1.375199999999999	0.4912266211364415	0.5647712429672639	0.7864918898270788	0.4416216221439248	0.9740027808994144	0.5962105676861307
1.385199999999999	0.4890577265537943	0.5619470892822119	0.7825796919138231	0.4400852370027533	0.9742365702012098	0.5965080853098091
1.395199999999999	0.4869185031223815	0.5591695922356035	0.7786159944336063	0.438551662119274	0.9743832117278995	0.5968160165348803
1.4051999999999991	0.4848112757349304	0.55644096270751	0.7746045645946389	0.4370224352979298	0.9744445174763516	0.5971343029959105
1.4151999999999991	0.4827382275753227	0.5537633034141509	0.7705492471733861	0.4354990101494794	0.9744223932977588	0.5974627550873702
